HIERARCHY
ROOT Hips
{
	OFFSET -0.001795 -0.223333 0.028219
	CHANNELS 6 Xposition Yposition Zposition Zrotation Yrotation Xrotation 
	JOINT LeftUpLeg
	{
		OFFSET 0.069520 -0.091406 -0.006815
		CHANNELS 3 Zrotation Yrotation Xrotation
		JOINT LeftLeg
		{
			OFFSET 0.034277 -0.375199 -0.004496
			CHANNELS 3 Zrotation Yrotation Xrotation
			JOINT LeftFoot
			{
				OFFSET -0.013596 -0.397961 -0.043693
				CHANNELS 3 Zrotation Yrotation Xrotation
				JOINT LeftToe
				{
					OFFSET 0.026358 -0.055791 0.119288
					CHANNELS 3 Zrotation Yrotation Xrotation
					End Site
					{
						OFFSET 0.000000 0.000000 0.000000
					}
				}
			}
		}
	}
	JOINT RightUpLeg
	{
		OFFSET -0.067670 -0.090522 -0.004320
		CHANNELS 3 Zrotation Yrotation Xrotation
		JOINT RightLeg
		{
			OFFSET -0.038290 -0.382569 -0.008850
			CHANNELS 3 Zrotation Yrotation Xrotation
			JOINT RightFoot
			{
				OFFSET 0.015774 -0.398415 -0.042312
				CHANNELS 3 Zrotation Yrotation Xrotation
				JOINT RightToe
				{
					OFFSET -0.025372 -0.048144 0.123348
					CHANNELS 3 Zrotation Yrotation Xrotation
					End Site
					{
						OFFSET 0.000000 0.000000 0.000000
					}
				}
			}
		}
	}
	JOINT Spine
	{
		OFFSET -0.002533 0.108963 -0.026696
		CHANNELS 3 Zrotation Yrotation Xrotation
		JOINT Spine1
		{
			OFFSET 0.005487 0.135180 0.001092
			CHANNELS 3 Zrotation Yrotation Xrotation
			JOINT Spine2
			{
				OFFSET 0.001457 0.052922 0.025425
				CHANNELS 3 Zrotation Yrotation Xrotation
				JOINT Neck
				{
					OFFSET -0.002778 0.213870 -0.042857
					CHANNELS 3 Zrotation Yrotation Xrotation
					JOINT Head
					{
						OFFSET 0.005152 0.064970 0.051349
						CHANNELS 3 Zrotation Yrotation Xrotation
						End Site
						{
							OFFSET 0.000000 0.000000 0.000000
						}
					}
				}
				JOINT LeftShoulder
				{
					OFFSET 0.078845 0.121749 -0.034090
					CHANNELS 3 Zrotation Yrotation Xrotation
					JOINT LeftArm
					{
						OFFSET 0.090977 0.030469 -0.008868
						CHANNELS 3 Zrotation Yrotation Xrotation
						JOINT LeftForeArm
						{
							OFFSET 0.259612 -0.012772 -0.027456
							CHANNELS 3 Zrotation Yrotation Xrotation
							JOINT LeftHand
							{
								OFFSET 0.249234 0.008986 -0.001171
								CHANNELS 3 Zrotation Yrotation Xrotation
								End Site
								{
									OFFSET 0.000000 0.000000 0.000000
								}
							}
						}
					}
				}
				JOINT RightShoulder
				{
					OFFSET -0.081759 0.118833 -0.038615
					CHANNELS 3 Zrotation Yrotation Xrotation
					JOINT RightArm
					{
						OFFSET -0.096012 0.032551 -0.009143
						CHANNELS 3 Zrotation Yrotation Xrotation
						JOINT RightForeArm
						{
							OFFSET -0.253742 -0.013329 -0.021401
							CHANNELS 3 Zrotation Yrotation Xrotation
							JOINT RightHand
							{
								OFFSET -0.255298 0.007772 -0.005559
								CHANNELS 3 Zrotation Yrotation Xrotation
								End Site
								{
									OFFSET 0.000000 0.000000 0.000000
								}
							}
						}
					}
				}
			}
		}
	}
}
MOTION
Frames: 10
Frame Time: 0.050000
0.000000 0.940535 0.000000 -0.336001 5.149498 14.968057 6.152490 -1.147487 -18.774961 -4.862136 0.436049 -1.311131 -6.909710 4.057722 36.755658 0.000000 0.000000 0.000000 -4.327392 1.415046 -22.928216 3.396567 -0.360727 5.140868 -19.143848 -34.399355 24.393706 0.000000 0.000000 0.000000 1.488666 -2.770550 35.252131 4.656280 -0.567966 -20.197044 3.484437 3.591505 24.155907 -2.405719 3.858369 -34.376547 0.000000 0.000000 0.000000 -10.265099 -34.362698 14.547187 -32.584564 -63.223786 11.421310 13.688492 -15.209610 -1.129576 0.000000 0.000000 0.000000 -7.670313 37.644740 11.282796 17.713643 55.525432 4.699524 -10.902961 3.245891 -0.046719 0.000000 0.000000 0.000000 
-0.000009 0.943038 0.002316 -1.528134 3.532423 13.873419 6.717679 -0.929144 -16.864093 -3.792712 0.367553 -1.909921 -6.234976 4.472698 36.759125 0.000000 0.000000 0.000000 -3.392015 1.588903 -21.767975 4.229849 -0.467668 4.575285 -18.473667 -33.578529 24.748847 0.000000 0.000000 0.000000 1.796874 -2.648520 34.698018 5.011511 -0.683924 -20.516240 3.643728 4.649576 24.125038 -1.640708 3.581074 -35.501414 0.000000 0.000000 0.000000 -12.020275 -32.810579 14.106589 -38.862571 -63.744844 15.224948 10.673823 -17.581417 -0.862694 0.000000 0.000000 0.000000 -8.265312 38.130818 11.174395 19.212659 58.633074 6.102175 -11.910500 -1.239757 0.322906 0.000000 0.000000 0.000000 
0.000091 0.943577 0.005083 -1.131693 3.511689 13.041597 6.223055 -0.918151 -15.688821 -3.794020 0.367989 -2.009849 -6.347200 4.386303 36.844112 0.000000 0.000000 0.000000 -4.539989 1.364055 -20.737517 5.452857 -0.658691 4.750836 -18.203119 -33.290626 24.393974 0.000000 0.000000 0.000000 2.093056 -2.673274 33.984283 4.142278 -0.362872 -22.155714 3.349777 3.934894 23.669089 -1.986010 3.607768 -33.177585 0.000000 0.000000 0.000000 -16.090297 -31.392455 14.432694 -44.658802 -61.881695 17.850635 6.341709 -20.749478 -0.230384 0.000000 0.000000 0.000000 -5.813552 37.424205 11.830651 18.337254 57.326069 5.111368 -11.522663 0.587249 0.164013 0.000000 0.000000 0.000000 
0.000308 0.946585 0.008273 -1.381222 2.704607 11.906902 6.131869 -0.825354 -14.172673 -3.341918 0.339518 -1.882722 -6.182339 4.584727 37.396937 0.000000 0.000000 0.000000 -4.095042 1.359276 -19.072789 5.280961 -0.614144 4.287623 -17.350985 -32.284590 24.124953 0.000000 0.000000 0.000000 1.742505 -2.319466 32.438379 4.385911 -0.503788 -21.198973 3.449557 4.311868 23.139498 -1.260445 3.296574 -33.752559 0.000000 0.000000 0.000000 -15.993051 -29.581752 13.329892 -53.869667 -57.364517 20.418595 4.708118 -28.956559 0.129399 0.000000 0.000000 0.000000 -5.777959 36.948809 11.616662 16.031685 55.939051 3.842380 -13.593388 0.939974 0.174026 0.000000 0.000000 0.000000 
0.000255 0.947848 0.012428 -0.858797 2.745941 10.699758 5.164182 -0.797691 -12.332230 -2.749621 0.295510 -2.276479 -6.396747 4.456800 37.605294 0.000000 0.000000 0.000000 -4.898937 1.166118 -17.553317 5.705072 -0.686346 4.612573 -16.942721 -31.809627 23.669035 0.000000 0.000000 0.000000 2.218779 -2.307091 30.603180 4.024011 -0.384197 -21.784075 2.752389 3.312254 24.243570 -0.796401 2.992930 -34.313098 0.000000 0.000000 0.000000 -17.493681 -28.479655 13.197969 -53.794117 -50.825760 16.510942 -1.843085 -39.016129 2.567502 0.000000 0.000000 0.000000 -3.748856 35.760054 11.753486 14.623765 52.772349 2.509234 -15.945454 5.129652 -0.265381 0.000000 0.000000 0.000000 
0.000202 0.949795 0.016999 -0.523699 3.083323 9.980878 4.542566 -0.795809 -11.607035 -2.308275 0.251834 -1.698155 -6.711244 4.333886 38.026524 0.000000 0.000000 0.000000 -5.594597 1.001509 -16.072777 5.961210 -0.732214 4.500792 -15.763063 -30.340513 22.875862 0.000000 0.000000 0.000000 2.377975 -2.217957 28.785619 3.634136 -0.276862 -21.957523 2.852259 3.032347 24.818738 -0.660525 2.916224 -33.877727 0.000000 0.000000 0.000000 -18.126093 -26.562358 12.218817 -53.294348 -43.458678 12.204106 -17.583523 -50.641078 11.058246 0.000000 0.000000 0.000000 -3.704070 33.253242 10.844685 16.393853 47.515523 2.525177 -19.845046 12.907485 -1.457088 0.000000 0.000000 0.000000 
-0.000242 0.951629 0.022307 -0.496660 4.090051 8.814975 3.937635 -0.737917 -10.049682 -1.207182 0.160716 -1.827970 -7.300483 3.981343 38.174638 0.000000 0.000000 0.000000 -5.654463 0.862112 -13.928261 5.720478 -0.710934 4.141406 -15.014738 -29.203787 22.827810 0.000000 0.000000 0.000000 3.016833 -2.316073 27.141356 3.584757 -0.239273 -22.173426 2.407338 2.881232 25.070305 0.218246 2.557112 -33.360538 0.000000 0.000000 0.000000 -19.503095 -23.317239 10.451506 -49.786078 -34.672345 6.864236 -46.789702 -57.460067 29.995417 0.000000 0.000000 0.000000 -1.305580 29.782638 10.369124 18.726190 40.201622 2.191451 -20.677435 23.812754 -3.135913 0.000000 0.000000 0.000000 
-0.001089 0.953598 0.028000 -0.300743 5.353239 8.385219 3.470450 -0.706257 -9.132118 -0.534719 0.117797 -2.279182 -8.013109 3.628897 38.614305 0.000000 0.000000 0.000000 -5.953146 0.732971 -12.219138 5.587567 -0.702237 3.431611 -14.179777 -27.943760 22.608386 0.000000 0.000000 0.000000 3.534161 -2.318552 24.991427 3.687764 -0.230131 -22.467829 1.941732 2.603545 25.761045 1.096388 2.126117 -31.636573 0.000000 0.000000 0.000000 -19.534064 -19.850276 8.365976 -47.013599 -27.166325 3.106450 -74.505523 -57.104128 48.571279 0.000000 0.000000 0.000000 -0.171736 25.239906 9.086035 23.598875 31.878536 1.869306 -18.839770 38.021478 -4.524253 0.000000 0.000000 0.000000 
-0.002219 0.955373 0.033940 -0.143438 6.837902 7.923506 3.096642 -0.642573 -7.935210 0.125881 0.098408 -3.195387 -8.819142 3.224128 39.021455 0.000000 0.000000 0.000000 -5.902774 0.639123 -10.694416 5.135243 -0.649000 2.668386 -14.317819 -27.753451 23.805915 0.000000 0.000000 0.000000 4.186747 -2.280288 22.463064 3.699187 -0.237820 -21.877933 1.933824 1.966648 25.946042 1.015570 2.087587 -29.517151 0.000000 0.000000 0.000000 -19.959398 -15.926002 6.109036 -43.967122 -19.820333 0.082570 -93.499162 -52.566546 58.890834 0.000000 0.000000 0.000000 1.137991 20.521394 7.686258 27.809523 21.500036 0.335756 -13.495437 51.946542 -3.646991 0.000000 0.000000 0.000000 
-0.003410 0.955812 0.039091 0.075181 8.636815 7.608643 3.180388 -0.592503 -7.125519 -0.062865 0.129205 -3.875165 -9.694085 2.730942 39.216356 0.000000 0.000000 0.000000 -6.015625 0.540851 -9.363891 4.602456 -0.588957 1.951914 -14.289032 -27.265248 25.094021 0.000000 0.000000 0.000000 4.155223 -2.099722 20.335701 4.522035 -0.409437 -21.931403 1.801364 1.808549 26.861897 1.443905 1.917761 -27.930052 0.000000 0.000000 0.000000 -19.369066 -12.606349 3.991194 -43.112427 -13.072256 -2.258288 -104.441826 -46.854983 61.254431 0.000000 0.000000 0.000000 1.570304 16.231210 6.224514 30.423934 11.950734 -1.658121 1.168254 62.266582 4.584414 0.000000 0.000000 0.000000 
